<svg xmlns="http://www.w3.org/2000/svg" xmlns:xlink="http://www.w3.org/1999/xlink" version="1.1" x="0px" y="0px" viewBox="0 0 100 100" style="enable-background:new 0 0 100 100;" xml:space="preserve"><path d="M77.6,46.6l-5.8,3.7l-0.4,5.1h-6l-3.5-6l5.1-4.5l-1.8-10.1l5.5-4.1l3.7,3.4l5.7-0.6L75,32.7l-4.4-4.1l-6.3,4.8l-2.2-2.5  l0.9-3.5l-2.6-3.2l0.5-5.1l-1.4,6.3l2.2,1.8l-1.1,4l2.9,3.8l0.8,7.9l-4.8,4h-1.6c-0.6-4.6-4.6-8.1-9.3-8.1c-0.7,0-1.3,0.1-2,0.2  l-1.8-2l1.4-7l-4.8-7.9l-5,4.2l-5.7-1.5v-6.3l-0.9,7.2l7.2,2.6l3.4-2.8l3.8,4.6l-2.7,6.7l-6.3-1.4L28.4,43l-6.3-1.5v-5.9L18,31.8  l2.4,4.4L20.3,43l7.1,1.1l0.2,3.5l-4.1,2v2.9l-4.4,2.7l5.4-1.9l0.4-3.4l4.6-1.2l0.1-4.5l5.1-5.7l5.9,0.9l2.1,1.2l0,0  c-2.1,1.7-3.5,4.4-3.5,7.3c0,2.7,1.1,5.1,3,6.9l0,0v1.5l-7.2,1.1l-5.1,7.8l6.1,2.9v5.7l-5.1,2.6l7.3-2.2L38,67.1l-5.3-2.6l3.3-4.8  l7.5-0.2l1.2,6.3l9.9,2.1l0.5,6.7l-4.4,2L50,81.6l1.5-3.5l6.5-2.2l-1.3-8.1l2.4-0.8l2.2,2.5l4.1-1.1l4.2,2.8L65,66.8l-2.6,1.1  l-3.3-2.7l-3.2,1.1l-8.6-1.7l-1.4-7.4c0.9,0.3,1.8,0.4,2.7,0.4c4.3,0,7.9-2.9,9.1-6.8h2.5l3.7,5.9l9.4,0.9v-6.1l4.7-3.3l4,3.8  L77.6,46.6z"></path></svg>